<svg viewBox="0 0 512 512" xmlns="http://www.w3.org/2000/svg" role="img" aria-label="RLC Circuit Simulator Logo">
  <defs>
    <linearGradient id="bg" x1="0" y1="0" x2="1" y2="1">
      <stop offset="0%" stop-color="#0f172a"/>
      <stop offset="100%" stop-color="#111827"/>
    </linearGradient>
    <linearGradient id="accent" x1="0" y1="0" x2="1" y2="1">
      <stop offset="0%" stop-color="#67e8f9"/>
      <stop offset="100%" stop-color="#8b5cf6"/>
    </linearGradient>
    <filter id="glow" x="-50%" y="-50%" width="200%" height="200%">
      <feGaussianBlur stdDeviation="10" result="coloredBlur"/>
      <feMerge>
        <feMergeNode in="coloredBlur"/>
        <feMergeNode in="SourceGraphic"/>
      </feMerge>
    </filter>
  </defs>
  <rect width="512" height="512" rx="120" fill="url(#bg)"/>
  <circle cx="256" cy="256" r="180" fill="none" stroke="url(#accent)" stroke-width="12" opacity="0.12"/>
  <path d="M70 256h68l28-66 46 132 46-132 28 66h156" fill="none" stroke="url(#accent)" stroke-width="30" stroke-linecap="round" stroke-linejoin="round" filter="url(#glow)"/>
  <path d="M180 140c18 0 32 14 32 32v40c0 18-14 32-32 32s-32-14-32-32v-40c0-18 14-32 32-32Zm152 128c18 0 32 14 32 32v40c0 18-14 32-32 32s-32-14-32-32v-40c0-18 14-32 32-32Z" fill="none" stroke="#e0f7ff" stroke-width="14"/>
  <circle cx="256" cy="256" r="16" fill="#e0f7ff"/>
</svg>
